# xmcd
#
# Track frame offsets:
#	150
#	15498
#	31947
#	48177
#	65917
#	86833
#	107351
#	112249
#	132009
#	151281
#	175845
#	194825
#	208758
#	226355
#
# Disc length: 3255 seconds
#
# Revision: 1
# Processed by: cddbd v1.5.1PL0 Copyright (c) Steve Scherf et al.
# Submitted via: audiograbber 1.83.01
#
DISCID=bf0cb50e
DTITLE=Outlandish -  BREAD and BARRELS OF WATHER
DYEAR=2002
DGENRE=Hip-Hop
TTITLE0=Intoduction
TTITLE1=Guantanamo
TTITLE2=Peelo
TTITLE3=Walou
TTITLE4=Aicha
TTITLE5=Gritty
TTITLE6=Interlude
TTITLE7=If only
TTITLE8=Fatimas Head
TTITLE9=El moro
TTITLE10=Eyes never dry
TTITLE11=A donkey named cheetah
TTITLE12=Dirty dirty east
TTITLE13=Life Is a loom
EXTD=
EXTT0=
EXTT1=
EXTT2=
EXTT3=
EXTT4=
EXTT5=
EXTT6=
EXTT7=
EXTT8=
EXTT9=
EXTT10=
EXTT11=
EXTT12=
EXTT13=
PLAYORDER=
